<?xml version="1.0" encoding="UTF-8" standalone="no"?>
<!-- Created with Inkscape (http://www.inkscape.org/) -->
<svg
   xmlns:svg="http://www.w3.org/2000/svg"
   xmlns="http://www.w3.org/2000/svg"
   xmlns:xlink="http://www.w3.org/1999/xlink"
   version="1.0"
   width="64"
   height="64"
   id="svg3178">
  <defs
     id="defs3180">
    <linearGradient
       id="linearGradient3989">
      <stop
         id="stop3991"
         style="stop-color:#ffff00;stop-opacity:0.57718122"
         offset="0" />
      <stop
         id="stop3993"
         style="stop-color:#ff7100;stop-opacity:0.31543624"
         offset="1" />
    </linearGradient>
    <linearGradient
       id="linearGradient3961">
      <stop
         id="stop3963"
         style="stop-color:#ff8600;stop-opacity:1"
         offset="0" />
      <stop
         id="stop3971"
         style="stop-color:#ff6f00;stop-opacity:0.77254903"
         offset="0.63291138" />
      <stop
         id="stop3965"
         style="stop-color:#be0000;stop-opacity:0"
         offset="1" />
    </linearGradient>
    <radialGradient
       cx="0.9579981"
       cy="0.12904023"
       r="53.109104"
       fx="0.9579981"
       fy="0.12904023"
       id="radialGradient3969"
       xlink:href="#linearGradient3961"
       gradientUnits="userSpaceOnUse"
       gradientTransform="matrix(1,0,0,0.8615507,0,1.7865535e-2)" />
    <radialGradient
       cx="33.165993"
       cy="31.245499"
       r="25.263159"
       fx="33.165993"
       fy="31.245499"
       id="radialGradient3982"
       xlink:href="#linearGradient3961"
       gradientUnits="userSpaceOnUse"
       gradientTransform="matrix(1,0,0,0.9340967,0,2.0591809)" />
    <radialGradient
       cx="33.954113"
       cy="30.481289"
       r="20.503525"
       fx="33.954113"
       fy="30.481289"
       id="radialGradient3995"
       xlink:href="#linearGradient3989"
       gradientUnits="userSpaceOnUse"
       gradientTransform="matrix(1,0,0,0.9655509,0,1.0500535)" />
  </defs>
  <g
     id="layer1">
    <path
       d="M 52.210525,0.12955466 C 47.966637,0.12762441 51.429048,3.1703581 51.941474,4.8298012 C 52.4539,6.4892443 37.049344,1.0173698 36.702274,2.513903 C 36.355203,4.0104363 50.375281,12.361424 49.867797,13.801276 C 49.360313,15.241128 51.826926,19.643561 48.115659,18.026153 C 44.404392,16.408745 46.723714,20.74291 45.921646,22.046223 C 45.119578,23.349536 38.97301,20.236121 38.036773,21.459577 C 37.100536,22.683034 41.374631,28.243362 40.312973,29.379236 C 39.251315,30.51511 32.624545,25.975464 31.446213,27.016031 C 30.267881,28.056598 34.537987,34.677377 33.25173,35.614911 C 31.965473,36.552445 29.480651,32.432266 28.095215,33.259043 C 26.709779,34.08582 27.341162,36.884999 25.865298,34.938046 C 24.389434,32.991094 18.283384,31.080684 16.725837,31.662769 C 15.168291,32.244854 17.241816,43.604478 15.611335,44.052629 C 13.980854,44.500781 13.004168,40.501302 11.309503,40.807795 C 9.6148366,41.114288 7.2021913,45.726752 5.4520875,45.883861 C 3.7019838,46.04097 4.6786423,32.568239 2.8818488,32.568239 C 1.0850552,32.568239 -2.525443,39.368617 -4.2755467,39.211508 C -6.0256504,39.054399 -5.456644,28.186605 -7.1513102,27.880112 C -8.8459761,27.573619 -13.721746,44.500781 -15.352226,44.052629 C -16.982706,43.604478 -17.202759,39.959763 -18.760306,39.377678 C -20.317853,38.795593 -23.212892,41.276137 -24.688757,40.567844 C -26.164622,39.859551 -19.111219,28.456022 -20.496654,27.629246 C -21.882089,26.802469 -31.706362,36.552445 -32.99262,35.614911 C -34.278878,34.677377 -30.926203,29.516175 -32.104535,28.475608 C -33.282867,27.435041 -38.992206,30.51511 -40.053864,29.379236 C -41.115522,28.243362 -37.988216,22.266012 -38.924453,21.042555 C -39.86069,19.819099 -44.86047,23.349536 -45.662537,22.046223 C -46.464604,20.74291 -58.324851,19.100384 -47.85655,18.026153 C -37.388249,16.951922 -49.101203,15.241128 -49.608688,13.801276 C -50.116173,12.361424 -37.013525,11.308322 -37.360596,9.811789 C -37.707666,8.3152557 -51.504456,6.3752908 -51.682365,4.8298012 C -51.860275,3.2843116 -46.676186,1.7162752 -46.676186,0.12955466 C -46.676186,-1.4571659 -43.144677,-2.1911582 -42.966767,-3.7366478 C -42.788858,-5.2821374 -25.781059,-4.3029478 -25.433988,-5.7994812 C -25.086918,-7.2960145 -43.923511,-9.6001827 -43.416026,-11.040035 C -42.908541,-12.479887 -41.176249,-15.557555 -40.517099,-16.933 C -39.85795,-18.308445 -46.464604,-20.4838 -45.662537,-21.787114 C -44.86047,-23.090428 -51.760596,-37.066266 -43.052894,-25.5792 C -34.345192,-14.092134 -41.115317,-27.984034 -40.053864,-29.120127 C -38.992411,-30.25622 -29.613142,-21.129113 -28.43481,-22.16968 C -27.256478,-23.210247 -34.278878,-34.418267 -32.99262,-35.355802 C -31.706362,-36.293337 -24.405025,-29.671026 -23.01959,-30.497802 C -21.634155,-31.324578 -26.164622,-39.600442 -24.688757,-40.308735 C -23.212892,-41.017028 -23.963449,-38.437275 -18.989664,-36.199414 C -14.015879,-33.961553 -16.982706,-43.345368 -15.352226,-43.79352 C -13.721746,-44.241672 -12.056986,-40.033682 -10.36232,-40.340175 C -8.6676538,-40.646668 -6.9430818,-45.467643 -5.1929781,-45.624752 C -3.4428744,-45.781861 2.0024866,-38.147439 3.7992801,-38.147439 C 5.5960736,-38.147439 3.7019838,-45.781861 5.4520875,-45.624752 C 7.2021913,-45.467643 2.5047435,-22.71472 4.1994095,-22.408227 C 5.8940755,-22.101734 13.980854,-44.241672 15.611335,-43.79352 C 17.241816,-43.345368 24.155728,-45.437542 20.395563,-42.246234 C 16.635398,-39.054926 23.251481,-40.791127 24.947867,-40.308735 C 26.644253,-39.826343 29.101115,-42.923844 29.242004,-38.004199 C 29.382893,-33.084554 31.965473,-36.293337 33.25173,-35.355802 C 34.537987,-34.418267 21.093567,-18.623004 22.271899,-17.582437 C 23.450231,-16.54187 39.251315,-30.256001 40.312973,-29.120127 C 41.374631,-27.984253 38.247325,-22.423925 39.183562,-21.200468 C 40.119799,-19.977012 45.119578,-23.090428 45.921646,-21.787114 C 46.723714,-20.4838 42.639994,-16.014824 43.299144,-14.639379 C 43.958294,-13.263934 49.360313,-14.982019 49.867797,-13.542167 C 50.375281,-12.102315 45.758874,-9.5896358 46.105945,-8.0931025 C 46.453015,-6.5965691 51.763565,-6.1161815 51.941474,-4.5706919 C 52.119383,-3.0252023 56.454413,0.13148491 52.210525,0.12955466 z"
       transform="matrix(0.5648582,0,0,0.6213324,31.602933,31.142176)"
       id="path3188"
       style="fill:url(#radialGradient3969);fill-opacity:1;fill-rule:evenodd;stroke:none;stroke-width:1px;stroke-linecap:butt;stroke-linejoin:miter;stroke-opacity:1" />
    <path
       d="M 58.429152,30.769231 C 58.429152,32.177166 42.484731,30.313076 42.220542,31.640986 C 41.956354,32.968896 57.11329,39.691234 56.611549,40.9117 C 56.109808,42.132165 49.66599,38.628086 48.953332,39.713688 C 48.240674,40.79929 53.000066,46.215465 52.103127,47.138785 C 51.654657,47.600445 39.848785,34.59881 38.646689,35.306256 C 37.444592,36.013702 46.846272,50.430229 46.31898,50.797038 C 45.264394,51.530657 41.287442,46.33261 40.101847,46.849108 C 38.916252,47.365606 40.262904,52.560211 39.491153,54.77549 C 39.057444,56.020432 36.761074,39.635264 37.052633,54.153845 C 37.080093,55.521278 34.608536,48.051497 33.318566,47.779539 C 32.028596,47.50758 31.302374,50.474918 30.116779,49.95842 C 28.931184,49.441922 29.164267,45.571012 27.915841,45.873962 C 24.91081,46.603177 22.899077,53.892064 22.002138,52.968744 C 21.105199,52.045424 24.6986,41.576618 23.985942,40.491016 C 23.273284,39.405414 15.53392,48.869007 15.032179,47.648542 C 14.530438,46.428076 26.318953,42.426386 21.002132,36.693617 C 20.081447,35.700905 7.9028345,33.990931 7.9028345,32.582996 C 7.9028345,31.175061 26.438349,30.966275 26.702537,29.638365 C 26.966726,28.310456 9.6073608,22.235891 10.109102,21.015425 C 10.610843,19.79496 15.759114,20.319281 16.471772,19.233679 C 17.18443,18.148077 27.957735,25.490046 27.313879,24.375385 C 16.249433,10.1232 33.448874,21.473101 25.841475,12.616478 C 24.944665,11.684739 23.607544,7.941812 24.897513,7.6698535 C 26.187483,7.397895 33.524266,9.6447752 33.554657,11.012146 C 33.789634,21.584309 38.848957,8.8229962 40.138926,9.0949547 C 41.428896,9.3669132 38.916252,14.691073 40.101847,15.207571 C 41.287443,15.724069 43.839293,11.30335 44.893878,12.036969 C 45.948463,12.770587 38.380277,25.26583 39.277216,26.18915 C 40.174155,27.11247 49.924884,18.148077 50.637542,19.233679 C 51.3502,20.319281 49.632075,23.033826 50.133815,24.254291 C 50.635556,25.474757 55.430038,22.610051 55.694226,23.93796 C 55.826321,24.601915 51.975639,26.994186 52.626347,28.360023 C 53.277054,29.72586 58.429152,30.065263 58.429152,30.769231 z"
       id="path3973"
       style="fill:url(#radialGradient3982);fill-opacity:1;stroke:none" />
    <path
       d="M 43.306734,32.537571 C 43.306734,33.225895 52.66293,36.15527 52.527382,36.804471 C 52.391835,37.453671 45.818486,37.814398 45.561057,38.41107 C 45.303627,39.007742 50.034317,42.495961 49.668672,43.0267 C 49.303028,43.557439 42.646028,41.794598 42.185833,42.245999 C 41.725639,42.697399 44.408308,48.018643 43.86723,48.377301 C 43.326153,48.735959 37.967966,43.600911 37.359671,43.853421 C 36.751375,44.105931 36.776787,50.144339 36.11494,50.277297 C 35.453093,50.410254 35.299008,39.326558 34.597275,39.326558 C 33.895542,39.326558 31.085854,48.020213 30.424007,47.887256 C 29.76216,47.754298 28.326992,41.184769 27.718696,40.932259 C 27.110401,40.679749 24.938936,47.939279 24.397859,47.580621 C 23.856781,47.221963 24.946089,39.245117 24.485895,38.793717 C 24.0257,38.342316 17.50148,43.424658 17.135836,42.893919 C 16.770191,42.36318 22.563122,36.21936 22.305692,35.622688 C 22.048263,35.026016 14.678234,33.337488 14.542687,32.688288 C 14.407139,32.039087 21.506073,32.429215 21.506073,31.740891 C 21.506073,31.052567 21.577263,30.380454 21.712811,29.731253 C 21.848358,29.082053 18.728761,26.198504 18.98619,25.601832 C 19.24362,25.00516 22.878075,26.695364 23.24372,26.164625 C 23.609364,25.633886 13.004953,19.562702 13.465148,19.111301 C 13.925342,18.659901 26.391481,23.980695 25.99122,23.469625 C 20.822753,16.870303 27.110401,22.802032 27.718696,22.549522 C 28.326992,22.297012 22.876411,12.384328 23.538258,12.25137 C 24.200105,12.118413 29.26114,18.287096 29.962873,18.287096 C 30.664606,18.287096 29.000019,2.9209807 32.040688,15.8789 C 33.340257,21.417054 33.830213,19.50863 34.438509,19.76114 C 35.046804,20.01365 37.467702,14.042141 38.008779,14.400799 C 38.549857,14.759457 41.858419,20.917162 42.318613,21.368562 C 42.778808,21.819963 50.236789,20.4517 50.602433,20.982439 C 50.968078,21.513178 46.631428,25.53628 46.888858,26.132952 C 47.146287,26.729624 49.872815,27.32017 50.535681,27.341212 C 62.488656,27.724852 43.306734,31.849247 43.306734,32.537571 z"
       id="path3986"
       style="fill:url(#radialGradient3995);fill-opacity:1;stroke:none" />
  </g>
</svg>
